<?xml version="1.0" encoding="UTF-8"?>
<svg id="_Слой_2" data-name="Слой 2" xmlns="http://www.w3.org/2000/svg" viewBox="0 0 511.66 358.17">
  <defs>
    <style>
      .cls-1 {
        fill: #bcbcbc;
      }
    </style>
  </defs>
  <g id="arrows">
    <g id="Dark">
      <g>
        <path class="cls-1" d="M424.13,100.6c-2.63-2.33-5.39-4.54-7.88-7.02-16.71-16.63-33.43-33.26-50-50.02-8.45-8.55-10.26-19.32-5.33-29.11,5.01-9.96,15.22-16.08,26.06-14.06,5.18,.97,10.89,3.6,14.6,7.26,34.32,33.77,68.26,67.93,102.3,101.99,8.7,8.7,9.7,18.63,5,29.72-4.15,9.79-12.12,13.19-21.86,13.98-2.19,.18-4.39,.11-6.59,.11-115.68,0-231.37,0-347.05,0-1.6,0-3.2,.03-4.79-.01-16.46-.48-26.42-10.51-26.17-26.31,.24-15.38,10.39-24.92,26.83-24.93,95.5-.04,191.01-.02,286.51-.02,2.39,0,4.79,0,7.18,0,.4-.52,.79-1.04,1.19-1.57Z"/>
        <path class="cls-1" d="M87.06,255.68c15.17,15.14,29.14,29.09,43.1,43.04,5.37,5.37,10.89,10.6,16.03,16.18,10.14,11.01,9.72,25.69-.78,35.9-10.23,9.94-24.88,9.87-35.38-.57-33.99-33.83-67.86-67.78-101.76-101.7-7.6-7.6-10.53-16.5-6.39-26.76,4.33-10.76,12.14-17.1,24.18-17.33,1.8-.03,3.6-.03,5.39-.03,115.7,0,231.39,0,347.09,0,1.8,0,3.6-.04,5.39,.03,16.03,.67,25.78,10.78,25.48,26.38-.29,15.16-10.37,24.83-26.34,24.83-95.71,.05-191.43,.03-287.14,.03-2.36,0-4.72,0-8.88,0Z"/>
      </g>
    </g>
  </g>
</svg>