<?xml version="1.0" encoding="UTF-8"?>
<svg id="_Слой_2" data-name="Слой 2" xmlns="http://www.w3.org/2000/svg" viewBox="0 0 510.1 357.08">
  <defs>
    <style>
      .cls-1 {
        fill: #4d4d4d;
      }
    </style>
  </defs>
  <g id="arrows">
    <g id="Light">
      <g>
        <path class="cls-1" d="M422.84,100.29c-2.62-2.33-5.37-4.53-7.85-7-16.66-16.58-33.33-33.16-49.85-49.87-8.43-8.52-10.23-19.26-5.32-29.02,5-9.93,15.18-16.04,25.98-14.02,5.17,.96,10.85,3.59,14.56,7.24,34.21,33.67,68.05,67.72,101.99,101.68,8.67,8.68,9.67,18.58,4.99,29.63-4.14,9.76-12.08,13.15-21.79,13.93-2.18,.18-4.38,.1-6.57,.1-115.33,0-230.66,0-346,0-1.59,0-3.19,.03-4.78-.01-16.41-.48-26.33-10.48-26.09-26.24,.24-15.34,10.36-24.84,26.75-24.85,95.21-.04,190.43-.02,285.64-.02,2.39,0,4.77,0,7.16,0,.4-.52,.79-1.04,1.19-1.56Z"/>
        <path class="cls-1" d="M86.8,254.91c15.12,15.1,29.05,29,42.97,42.91,5.35,5.35,10.85,10.57,15.98,16.13,10.11,10.97,9.7,25.62-.77,35.79-10.2,9.91-24.81,9.84-35.27-.57-33.89-33.73-67.65-67.58-101.45-101.39-7.58-7.58-10.49-16.45-6.37-26.68,4.32-10.72,12.11-17.05,24.1-17.28,1.79-.03,3.59-.03,5.38-.03,115.34,0,230.69,0,346.03,0,1.79,0,3.59-.04,5.38,.03,15.98,.67,25.7,10.74,25.41,26.3-.29,15.11-10.34,24.75-26.26,24.76-95.42,.05-190.85,.03-286.27,.03-2.35,0-4.71,0-8.85,0Z"/>
      </g>
    </g>
  </g>
</svg>